<?xml version="1.0" encoding="UTF-8" standalone="no"?>
<svg
   xmlns:dc="http://purl.org/dc/elements/1.1/"
   xmlns:cc="http://creativecommons.org/ns#"
   xmlns:rdf="http://www.w3.org/1999/02/22-rdf-syntax-ns#"
   xmlns:svg="http://www.w3.org/2000/svg"
   xmlns="http://www.w3.org/2000/svg"
   xmlns:sodipodi="http://sodipodi.sourceforge.net/DTD/sodipodi-0.dtd"
   xmlns:inkscape="http://www.inkscape.org/namespaces/inkscape"
   version="1.1"
   id="Layer_1"
   x="0px"
   y="0px"
   width="38.299px"
   height="100px"
   viewBox="3.728 9.734 38.299 100"
   enable-background="new 3.728 9.734 38.299 100"
   xml:space="preserve"
   inkscape:version="0.48.3.1 r9886"
   sodipodi:docname="noun_project_2329.svg"><metadata
   id="metadata17"><rdf:RDF><cc:Work
       rdf:about=""><dc:format>image/svg+xml</dc:format><dc:type
         rdf:resource="http://purl.org/dc/dcmitype/StillImage" /></cc:Work></rdf:RDF></metadata><defs
   id="defs15" /><sodipodi:namedview
   pagecolor="#ffffff"
   bordercolor="#666666"
   borderopacity="1"
   objecttolerance="10"
   gridtolerance="10"
   guidetolerance="10"
   inkscape:pageopacity="0"
   inkscape:pageshadow="2"
   inkscape:window-width="640"
   inkscape:window-height="480"
   id="namedview13"
   showgrid="false"
   inkscape:zoom="2.36"
   inkscape:cx="19.1495"
   inkscape:cy="50"
   inkscape:window-x="0"
   inkscape:window-y="28"
   inkscape:window-maximized="0"
   inkscape:current-layer="Layer_1" />
<path
   d="M7.92,51.727v39.598v4.046c0,7.898,6.46,14.363,14.363,14.363h1.196c7.897,0,14.357-6.466,14.357-14.363v-4.046v-5.884  h-18.72c-0.992,0-1.793-0.802-1.793-1.795c0-0.99,0.801-1.791,1.793-1.791h18.72v-5.314H24.246c-0.992,0-1.793-0.806-1.793-1.797  c0-0.99,0.801-1.793,1.793-1.793h13.591v-5.312h-18.72c-0.992,0-1.793-0.807-1.793-1.799c0-0.99,0.801-1.792,1.793-1.792h18.72  v-5.313H24.246c-0.992,0-1.793-0.806-1.793-1.798c0-0.987,0.801-1.793,1.793-1.793h13.591v-3.415v-5.495H7.92V51.727z"
   id="path3"
   style="fill:#f9f9f9;stroke:#000000" />
<path
   d="M39.635,35.024h-1.538H7.659H6.122c-1.312,0-2.393,1.076-2.393,2.392v1.636c0,1.106,0.775,1.999,1.796,2.273  c0.195,0.05,0.386,0.121,0.597,0.121H7.92h29.917h1.798c0.21,0,0.4-0.069,0.596-0.121c1.021-0.275,1.796-1.167,1.796-2.273v-1.636  C42.027,36.1,40.951,35.024,39.635,35.024z"
   id="path5"
   style="fill:#f9f9f9;stroke:#000000" />
<path
   d="M29.398,29.311c3.469-0.131,6.176-3.048,6.045-6.516c-0.131-3.468-3.05-6.172-6.519-6.039  c-3.465,0.129-6.171,3.044-6.042,6.513C23.013,26.735,25.934,29.44,29.398,29.311z"
   id="path7"
   style="fill:#f9f9f9;stroke:#000000" />
<circle
   cx="16.929"
   cy="13.951"
   r="4.217"
   id="circle9"
   style="fill:#f9f9f9;stroke:#000000" />
<path
   d="M13.139,29.115c1.518,0,2.755-1.232,2.755-2.755c0-1.522-1.237-2.759-2.755-2.759c-1.523,0-2.761,1.237-2.761,2.759  C10.378,27.882,11.615,29.115,13.139,29.115z"
   id="path11"
   style="fill:#f9f9f9;stroke:#000000" />
</svg>