<?xml version="1.0" encoding="UTF-8" standalone="no"?>
<svg
   xmlns:dc="http://purl.org/dc/elements/1.1/"
   xmlns:cc="http://creativecommons.org/ns#"
   xmlns:rdf="http://www.w3.org/1999/02/22-rdf-syntax-ns#"
   xmlns:svg="http://www.w3.org/2000/svg"
   xmlns="http://www.w3.org/2000/svg"
   xmlns:sodipodi="http://sodipodi.sourceforge.net/DTD/sodipodi-0.dtd"
   xmlns:inkscape="http://www.inkscape.org/namespaces/inkscape"
   version="1.1"
   id="Layer_1"
   x="0px"
   y="0px"
   width="66.348px"
   height="100px"
   viewBox="0 0 66.348 100"
   enable-background="new 0 0 66.348 100"
   xml:space="preserve"
   inkscape:version="0.48.3.1 r9886"
   sodipodi:docname="noun_project_13681.svg"><metadata
   id="metadata4500"><rdf:RDF><cc:Work
       rdf:about=""><dc:format>image/svg+xml</dc:format><dc:type
         rdf:resource="http://purl.org/dc/dcmitype/StillImage" /></cc:Work></rdf:RDF></metadata><defs
   id="defs4498" /><sodipodi:namedview
   pagecolor="#ffffff"
   bordercolor="#666666"
   borderopacity="1"
   objecttolerance="10"
   gridtolerance="10"
   guidetolerance="10"
   inkscape:pageopacity="0"
   inkscape:pageshadow="2"
   inkscape:window-width="1366"
   inkscape:window-height="744"
   id="namedview4496"
   showgrid="false"
   inkscape:zoom="2.36"
   inkscape:cx="33.174"
   inkscape:cy="50"
   inkscape:window-x="1366"
   inkscape:window-y="0"
   inkscape:window-maximized="1"
   inkscape:current-layer="Layer_1" />
<path
   d="M41.028,30.093c16.765-1.198,22.638,4.791,23.745,9.579c1.646,7.097,2.483,13.172-1.196,14.369  c-4.695,1.527-3.223-3.656-4.702-9.578c-1.196-4.791-5.691-5.953-8.267-5.988c-2.117-0.029-5.984-0.183-7.562,1.197  c-3.409,2.985-1.197,16.765-1.197,16.765s2.657,1.197,9.842,2.395c7.184,1.197,7.793,9.149,7.824,11.973  c0.023,1.822-1.142,8.636,0.621,8.987c6.982,1.397,6.903,4.274,5.366,5.382c-1.477,1.065-3.591,1.198-8.381,1.199  c-4.938,0-4.79-2.395-4.79-2.395s0.698-12.433-1.197-14.37c-3.17-3.236-17.406-1.196-17.406-1.196s-4.181,12.083-1.524,14.37  c1.396,1.2,4.208,2.092,7.994,2.089c3.592,0,8.375,1.351,9.351,3.301c1.61,3.225,2.121,8.035,0,11.173  c-1.014,1.501-3.307,0.167-4.19-1.396c-0.737-1.304-0.807-3.718-1.981-4.694C40,90.448,32.633,92.24,26.618,90.964  c-6.583-1.395-8.38-6.982-7.549-12.975c0.368-2.652,1.489-10.775,1.232-15.565c-0.258-4.82,0.795-15.585-2.395-19.158  c-2.137-2.396-13.17-8.383-13.17-8.383C-4.587,30.093,2.731,13.33,2.731,13.33c-1.197-9.58,7.05-7.185,7.05-7.185  s0-1.197,1.198-4.789c0.846-2.541,2.58-0.898,2.528-0.001c-0.134,2.396,0,4.791,0,8.382c0,3.593-3.59,5.987-3.59,5.987  C7.521,27.7,8.016,27.07,11.919,30.093c6.062,4.695,11.676,3.06,14.74,2.394C31.451,31.448,41.028,30.093,41.028,30.093"
   id="path4480"
   style="stroke:#000000;fill:#f9f9f9" />
<polygon
   points="43.582,82.231 38.198,82.231 38.198,79.539 "
   id="polygon4482"
   style="stroke:#000000;fill:#f9f9f9" />
<polygon
   points="44.927,80.884 39.545,75.501 42.234,72.809 "
   id="polygon4484"
   style="stroke:#000000;fill:#f9f9f9" />
<polygon
   points="47.619,79.539 46.274,74.157 48.964,74.157 "
   id="polygon4486"
   style="stroke:#000000;fill:#f9f9f9" />
<polygon
   points="55.932,88.941 61.261,88.171 61.644,90.836 "
   id="polygon4488"
   style="stroke:#000000;fill:#f9f9f9" />
<polygon
   points="54.793,90.465 60.89,95.024 58.609,98.074 "
   id="polygon4490"
   style="stroke:#000000;fill:#f9f9f9" />
<polygon
   points="52.32,92.181 54.421,97.319 51.757,97.703 "
   id="polygon4492"
   style="stroke:#000000;fill:#f9f9f9" />
<path
   d="M28.244,11.476c-5.966-0.044-9.31,4.167-9.31,9.31c0,5.141,4.76,9.142,9.31,9.309c5.362,0.195,9.31-4.167,9.31-9.309  C37.554,15.643,33.609,11.516,28.244,11.476z M28.712,28.117c-4.189,0-6.285-4.19-6.285-4.19s6.983,2.793,12.569,0  C34.997,23.927,32.902,28.117,28.712,28.117z"
   id="path4494"
   style="stroke:#000000;fill:#f9f9f9" />
</svg>