<?xml version="1.0" encoding="UTF-8" standalone="no"?>
<svg
   xmlns:dc="http://purl.org/dc/elements/1.1/"
   xmlns:cc="http://creativecommons.org/ns#"
   xmlns:rdf="http://www.w3.org/1999/02/22-rdf-syntax-ns#"
   xmlns:svg="http://www.w3.org/2000/svg"
   xmlns="http://www.w3.org/2000/svg"
   xmlns:sodipodi="http://sodipodi.sourceforge.net/DTD/sodipodi-0.dtd"
   xmlns:inkscape="http://www.inkscape.org/namespaces/inkscape"
   version="1.0"
   id="Layer_1"
   x="0px"
   y="0px"
   width="100px"
   height="100px"
   viewBox="0 0 100 100"
   enable-background="new 0 0 100 100"
   xml:space="preserve"
   inkscape:version="0.48.4 r9939"
   sodipodi:docname="icon_22440.svg"><metadata
     id="metadata3983"><rdf:RDF><cc:Work
         rdf:about=""><dc:format>image/svg+xml</dc:format><dc:type
           rdf:resource="http://purl.org/dc/dcmitype/StillImage" /></cc:Work></rdf:RDF></metadata><defs
     id="defs3981" /><sodipodi:namedview
     pagecolor="#ffffff"
     bordercolor="#666666"
     borderopacity="1"
     objecttolerance="10"
     gridtolerance="10"
     guidetolerance="10"
     inkscape:pageopacity="0"
     inkscape:pageshadow="2"
     inkscape:window-width="1366"
     inkscape:window-height="718"
     id="namedview3979"
     showgrid="false"
     inkscape:zoom="5.6568543"
     inkscape:cx="37.89176"
     inkscape:cy="65.264344"
     inkscape:window-x="0"
     inkscape:window-y="0"
     inkscape:window-maximized="1"
     inkscape:current-layer="Layer_1" /><path
     d="M54.014,74.217c-1.362,0-2.47,1.107-2.47,2.467c0,1.363,1.107,2.469,2.47,2.469c1.361,0,2.469-1.105,2.469-2.469  C56.482,75.324,55.375,74.217,54.014,74.217z"
     id="path3959"
     style="fill:#f9f9f9" /><path
     d="M78.072,74.217c-1.36,0-2.469,1.107-2.469,2.467c0,1.363,1.108,2.469,2.469,2.469c1.361,0,2.47-1.105,2.47-2.469  C80.542,75.324,79.434,74.217,78.072,74.217z"
     id="path3961"
     style="fill:#f9f9f9" /><circle
     cx="54.014"
     cy="59.164"
     r="2.469"
     id="circle3963"
     style="fill:#f9f9f9" /><path
     d="M93.782,55.098c-1.36,0-2.469,1.107-2.469,2.469s1.108,2.469,2.469,2.469c1.362,0,2.47-1.107,2.47-2.469  S95.145,55.098,93.782,55.098z"
     id="path3965"
     style="fill:#f9f9f9" /><path
     d="M93.782,53.192c-1.591,0-2.982,0.856-3.748,2.13l-17.996-9.941l2.943-2.281c0.791,0.792,1.885,1.283,3.091,1.283  c2.413,0,4.376-1.963,4.376-4.376c0-2.412-1.963-4.375-4.376-4.375c-1.266,0-2.405,0.545-3.206,1.408L57.784,24.694  c0.382-0.648,0.604-1.402,0.604-2.208c0-2.412-1.962-4.375-4.375-4.375c-2.412,0-4.376,1.963-4.376,4.375  c0,0.316,0.035,0.622,0.099,0.918l-7.995,2.944l-7.568-2.72c0.099-0.365,0.156-0.746,0.156-1.142c0-2.412-1.963-4.375-4.375-4.375  s-4.375,1.963-4.375,4.375c0,0.744,0.187,1.443,0.515,2.056L9.07,37.007c-0.798-0.845-1.925-1.375-3.176-1.375  c-2.412,0-4.375,1.963-4.375,4.375c0,2.413,1.963,4.376,4.375,4.376c1.228,0,2.338-0.51,3.133-1.328L26.1,55.461  c-0.333,0.615-0.521,1.32-0.521,2.068c0,2.412,1.963,4.375,4.375,4.375c1.153,0,2.2-0.453,2.982-1.184L50.222,74.51  c-0.369,0.643-0.584,1.383-0.584,2.174c0,2.414,1.964,4.375,4.376,4.375c2.413,0,4.375-1.961,4.375-4.375  c0-0.512-0.094-1.002-0.257-1.459l10.527-5.094l5.774,4.131c-0.465,0.695-0.736,1.527-0.736,2.422c0,2.414,1.963,4.375,4.375,4.375  c2.413,0,4.376-1.961,4.376-4.375c0-2.412-1.963-4.373-4.376-4.373c-0.478,0-0.937,0.078-1.366,0.221l-2.327-5.166l15.645-7.57  c0.764,1.281,2.16,2.146,3.759,2.146c2.413,0,4.376-1.963,4.376-4.375S96.195,53.192,93.782,53.192z M89.744,55.889  c-0.204,0.486-0.318,1.018-0.332,1.574l-19.167,0.719l-3.808-8.463l5.054-3.914L89.744,55.889z M50.273,59.164  c0-2.064,1.674-3.738,3.74-3.738c2.065,0,3.738,1.674,3.738,3.738c0,2.066-1.673,3.74-3.738,3.74  C51.947,62.904,50.273,61.23,50.273,59.164z M34.322,57.674c0.002-0.049,0.007-0.096,0.007-0.145c0-0.42-0.063-0.824-0.174-1.209  l6.104-2.186l9.567,3.762c-0.063,0.215-0.11,0.436-0.142,0.662L34.322,57.674z M29.963,50.088l3.517,1.382l-1.484,2.19  c-0.608-0.321-1.299-0.507-2.033-0.507V50.088z M29.958,26.862c0.948,0,1.825-0.308,2.542-0.825l2.497,2.795l-5.038,1.855  L29.958,26.862z M58.353,58.627c-0.094-0.75-0.376-1.441-0.801-2.025l1.329-1.029l2.624,2.938L58.353,58.627z M57.144,56.113  c-0.778-0.797-1.856-1.299-3.051-1.32l-0.021-4.605l4.386,4.91L57.144,56.113z M54.026,40.41l7.527,0.007l2.1,4.664l-9.591,3.435  L54.026,40.41z M53.428,48.513l-7.245-8.111l7.208,0.006L53.428,48.513z M54.023,39.774l-0.016-3.627l6.578,3.634L54.023,39.774z   M53.388,39.773l-7.773-0.008l-1.955-2.188l3.524-5.2l6.187,3.417L53.388,39.773z M44.762,39.765l-2.582-0.003l1.113-1.642  L44.762,39.765z M45.33,40.401l7.608,8.519l-12.669,4.538l-5.817-2.288l7.298-10.772L45.33,40.401z M53.396,49.43l0.037,0.043  l0.023,5.355c-1.505,0.193-2.772,1.152-3.396,2.475l-8.892-3.494L53.396,49.43z M54.066,49.229V49.19l9.849-3.527l1.737,3.861  l-6.691,5.183L54.066,49.229z M64.515,45.447l3.841-1.375l2.529,1.398l-4.716,3.653L64.515,45.447z M64.254,44.866l-1.833-4.072  l5.193,2.869L64.254,44.866z M63.054,40.418l10.665,0.011c0.032,0.336,0.105,0.661,0.21,0.972l-5.519,1.976L63.054,40.418z   M61.964,39.781l-2.947-6.549l14.92,5.362c-0.131,0.38-0.208,0.782-0.229,1.2L61.964,39.781z M61.058,39.316l-7.055-3.896  l-0.018-3.995l4.2,1.51L61.058,39.316z M53.982,30.748l-0.018-3.888c0.017,0,0.032,0.002,0.049,0.002  c0.469,0,0.92-0.077,1.343-0.213l2.466,5.479L53.982,30.748z M53.346,30.519l-3.942-1.417l2.072-3.058  c0.54,0.386,1.17,0.651,1.854,0.759L53.346,30.519z M53.349,31.195l0.019,3.873l-5.825-3.218l1.492-2.204L53.349,31.195z   M46.983,31.542l-7.001-3.868l1.762-0.649l6.674,2.398L46.983,31.542z M46.625,32.069l-3.401,5.021l-7.132-7.984l3.101-1.142  L46.625,32.069z M35.637,28.596l-2.648-2.965c0.235-0.226,0.444-0.477,0.624-0.75l4.846,2.677L35.637,28.596z M35.451,29.342  l7.405,8.291l-1.443,2.129L29.961,39.75l-0.002-8.387L35.451,29.342z M29.325,39.75L10.256,39.73  c-0.023-0.36-0.085-0.709-0.19-1.042l19.258-7.09L29.325,39.75z M29.325,40.385l0.002,8.77L9.983,41.552  c0.141-0.374,0.234-0.771,0.268-1.186L29.325,40.385z M29.961,40.386l11.022,0.011l-7.137,10.534l-3.883-1.526L29.961,40.386z   M34.086,51.708l5.275,2.073l-5.426,1.943c-0.313-0.688-0.799-1.279-1.404-1.724L34.086,51.708z M58.384,59.26l3.67-0.137  l8.418,9.426l-1.749,0.846L57.7,61.508C58.118,60.855,58.365,60.086,58.384,59.26z M62.878,59.092l6.963-0.262l3.705,8.23  l-2.479,1.199L62.878,59.092z M62.33,58.479l-2.945-3.297l6.536-5.062l3.64,8.087L62.33,58.479z M69.152,43.786l5.023-1.799  c0.112,0.222,0.244,0.432,0.393,0.63l-3.137,2.429L69.152,43.786z M78.072,36.268c2.065,0,3.74,1.675,3.74,3.74  c0,2.066-1.675,3.74-3.74,3.74s-3.739-1.674-3.739-3.74C74.333,37.942,76.007,36.268,78.072,36.268z M74.467,37.535  c-0.104,0.151-0.196,0.309-0.282,0.473l-15.53-5.582l-2.71-6.02c0.577-0.285,1.083-0.691,1.48-1.188L74.467,37.535z M50.273,22.487  c0-2.065,1.674-3.74,3.74-3.74c2.065,0,3.738,1.675,3.738,3.74s-1.673,3.74-3.738,3.74C51.947,26.227,50.273,24.552,50.273,22.487z   M49.918,24.015c0.232,0.62,0.599,1.172,1.065,1.622l-2.198,3.244l-6.113-2.198L49.918,24.015z M40.813,26.69l-1.567,0.577  l-5.327-2.943c0.015-0.032,0.032-0.063,0.046-0.095L40.813,26.69z M26.214,22.487c0-2.065,1.674-3.74,3.739-3.74  c2.066,0,3.74,1.675,3.74,3.74s-1.674,3.74-3.74,3.74C27.889,26.227,26.214,24.552,26.214,22.487z M26.438,25.08  c0.679,0.918,1.705,1.56,2.885,1.732l0,4.109L9.826,38.1c-0.103-0.209-0.218-0.411-0.353-0.601L26.438,25.08z M5.894,43.748  c-2.065,0-3.74-1.674-3.74-3.74c0-2.065,1.675-3.74,3.74-3.74c2.066,0,3.74,1.675,3.74,3.74C9.634,42.073,7.96,43.748,5.894,43.748z   M9.436,42.567c0.102-0.141,0.197-0.285,0.282-0.438l19.61,7.708v3.366c-1.178,0.17-2.203,0.808-2.883,1.723L9.436,42.567z   M29.954,61.27c-2.065,0-3.739-1.676-3.739-3.74c0-2.066,1.674-3.74,3.739-3.74c2.066,0,3.74,1.674,3.74,3.74  C33.693,59.594,32.02,61.27,29.954,61.27z M33.37,60.254c0.444-0.555,0.754-1.221,0.886-1.949l15.383,0.887  c0.015,2.221,1.692,4.053,3.847,4.313l0.014,8.838c-1.182,0.141-2.219,0.752-2.92,1.641L33.37,60.254z M57.752,76.684  c0,2.066-1.673,3.74-3.738,3.74c-2.066,0-3.74-1.674-3.74-3.74c0-2.064,1.674-3.738,3.74-3.738  C56.079,72.945,57.752,74.619,57.752,76.684z M57.879,74.641c-0.717-1.352-2.122-2.281-3.745-2.324l-0.012-8.781  c1.277-0.033,2.419-0.613,3.199-1.516l10.75,7.689L57.879,74.641z M69.312,69.816l1.601-0.775l4.067,4.553  c-0.054,0.053-0.103,0.111-0.153,0.168L69.312,69.816z M78.072,72.945c2.065,0,3.74,1.674,3.74,3.738c0,2.066-1.675,3.74-3.74,3.74  s-3.739-1.674-3.739-3.74C74.333,74.619,76.007,72.945,78.072,72.945z M76.118,72.775c-0.23,0.117-0.45,0.252-0.655,0.406  l-3.956-4.43l2.299-1.111L76.118,72.775z M74.117,66.785l-3.59-7.98l18.915-0.709c0.049,0.396,0.147,0.775,0.295,1.131  L74.117,66.785z M93.782,61.307c-2.065,0-3.739-1.674-3.739-3.74c0-2.064,1.674-3.738,3.739-3.738c2.066,0,3.74,1.674,3.74,3.738  C97.522,59.633,95.849,61.307,93.782,61.307z"
     id="path3967"
     style="fill:#ffeeaa" /><path
     d="M32.423,57.529c0-1.363-1.107-2.469-2.47-2.469c-1.362,0-2.469,1.105-2.469,2.469c0,1.359,1.107,2.469,2.469,2.469  C31.316,59.998,32.423,58.889,32.423,57.529z"
     id="path3969"
     style="fill:#f9f9f9" /><path
     d="M8.364,40.007c0-1.361-1.109-2.469-2.47-2.469c-1.361,0-2.469,1.108-2.469,2.469c0,1.361,1.108,2.47,2.469,2.47  C7.255,42.477,8.364,41.369,8.364,40.007z"
     id="path3971"
     style="fill:#f9f9f9" /><path
     d="M75.604,40.007c0,1.361,1.108,2.47,2.469,2.47c1.361,0,2.47-1.108,2.47-2.47c0-1.361-1.108-2.469-2.47-2.469  C76.712,37.538,75.604,38.646,75.604,40.007z"
     id="path3973"
     style="fill:#f9f9f9" /><path
     d="M29.954,24.957c1.362,0,2.47-1.108,2.47-2.47c0-1.361-1.107-2.47-2.47-2.47c-1.362,0-2.469,1.109-2.469,2.47  C27.485,23.849,28.592,24.957,29.954,24.957z"
     id="path3975"
     style="fill:#f9f9f9" /><path
     d="M54.014,24.957c1.361,0,2.469-1.108,2.469-2.47c0-1.361-1.107-2.47-2.469-2.47c-1.362,0-2.47,1.109-2.47,2.47  C51.544,23.849,52.651,24.957,54.014,24.957z"
     id="path3977"
     style="fill:#f9f9f9" /></svg>